{"title":"Naruto Shippuden 88 DVBrip xvid audio castellano","uid":6083991,"size":208984064,"categoryP":"video","categoryS":"tv_shows","magnet":"?xt=urn:btih:311dbfaacfb93ac8e50bd68301061134347bc094&amp;dn=Naruto+Shippuden+88+DVBrip+xvid+audio+castellano&amp;tr=udp%3A%2F%2Ftracker.openbittorrent.com%3A80&amp;tr=udp%3A%2F%2Fopen.demonii.com%3A1337&amp;tr=udp%3A%2F%2Ftracker.coppersurfer.tk%3A6969&amp;tr=udp%3A%2F%2Fexodus.desync.com%3A6969","seeders":0,"leechers":0,"uploader":"ratabit","files":1,"time":1294236158,"description":"General\nComplete name                    : D:\\tem\\narut\\subida\\Naruto Shippuden 88 DVBrip xvid audio castellano.avi\nFormat                           : AVI\nFormat/Info                      : Audio Video Interleave\nFile size                        : 199 MiB\nDuration                         : 20mn 4s\nOverall bit rate                 : 1 388 Kbps\nWriting application              : VirtualDubMod 1.5.10.4 || AKO+ || (build 2550/release)\nWriting library                  : VirtualDubMod build 2550/release\n\nVideo\nID                               : 0\nFormat                           : MPEG-4 Visual\nFormat profile                   : Advanced Simple@L5\nFormat settings, BVOP            : Yes\nFormat settings, QPel            : No\nFormat settings, GMC             : No warppoints\nFormat settings, Matrix          : Default (MPEG)\nCodec ID                         : XVID\nCodec ID/Hint                    : XviD\nDuration                         : 20mn 4s\nBit rate                         : 1 250 Kbps\nWidth                            : 640 pixels\nHeight                           : 356 pixels\nDisplay aspect ratio             : 16:9\nFrame rate                       : 25.000 fps\nColor space                      : YUV\nChroma subsampling               : 4:2:0\nBit depth                        : 8 bits\nScan type                        : Progressive\nCompression mode                 : Lossy\nBits/(Pixel*Frame)               : 0.220\nStream size                      : 180 MiB (90%)\nWriting library                  : XviD 58\n\nAudio\nID                               : 1\nFormat                           : MPEG Audio\nFormat version                   : Version 1\nFormat profile                   : Layer 2\nCodec ID                         : 50\nDuration                         : 20mn 4s\nBit rate mode                    : Constant\nBit rate                         : 128 Kbps\nChannel(s)                       : 2 channels\nSampling rate                    : 48.0 KHz\nCompression mode                 : Lossy\nStream size                      : 18.4 MiB (9%)\nAlignment                        : Aligned on interleaves\nInterleave, duration             : 40 ms (1.00 video frame)\nInterleave, preload duration     : 504 ms\n\n","torrent":{"xt":"urn:btih:311dbfaacfb93ac8e50bd68301061134347bc094","amp;dn":"Naruto+Shippuden+88+DVBrip+xvid+audio+castellano","amp;tr":["udp%3A%2F%2Ftracker.openbittorrent.com%3A80","udp%3A%2F%2Fopen.demonii.com%3A1337","udp%3A%2F%2Ftracker.coppersurfer.tk%3A6969","udp%3A%2F%2Fexodus.desync.com%3A6969"],"infoHash":"311dbfaacfb93ac8e50bd68301061134347bc094","infoHashBuffer":{"type":"Buffer","data":[49,29,191,170,207,185,58,200,229,11,214,131,1,6,17,52,52,123,192,148]},"announce":[],"urlList":[]}}